name analog
datacolumns 19
datarows 32
range 0.0 0.0155
endheader
time	ground_force_vx	ground_force_vy	ground_force_vz	ground_force_px	ground_force_py	ground_force_pz	l_ground_force_vx	l_ground_force_vy	l_ground_force_vz	l_ground_force_px	l_ground_force_py	l_ground_force_pz	ground_torque_x	ground_torque_y	ground_torque_z	l_ground_torque_x	l_ground_torque_y	l_ground_torque_z
0.0	-0.0	-0.0	-0.0	-8.831840515136719	19.68893241882324	-102.9015655517578	4.024823188781738	-133.2937774658203	-789.4964599609375	-0.0	-0.0	-0.0	-0.0	-0.0	-0.0	174721.5625	8075.25341796875	-5300.5673828125
0.0005	-0.0	-0.0	-0.0	-4.144608974456787	21.408063888549805	-118.33625030517578	4.097339630126953	-132.21022033691406	-780.6084594726562	-0.0	-0.0	-0.0	-0.0	-0.0	-0.0	172872.96875	8139.91845703125	-5162.54638671875
0.001	-0.0	-0.0	-0.0	-0.730589747428894	23.66771697998047	-135.25796508789062	3.888843536376953	-130.6516571044922	-769.086669921875	-0.0	-0.0	-0.0	-0.0	-0.0	-0.0	170414.484375	7982.2373046875	-5264.91650390625
0.0015	-0.0	-0.0	-0.0	3.444946050643921	27.60307884216309	-153.85079956054688	3.814563751220703	-128.5249786376953	-755.3759155273438	-0.0	-0.0	-0.0	-0.0	-0.0	-0.0	167423.40625	8139.70068359375	-5315.81298828125
0.002	-0.0	-0.0	-0.0	6.072973728179932	31.25417137145996	-175.22996520996094	3.176421880722046	-126.06922912597656	-741.3839721679688	-0.0	-0.0	-0.0	-0.0	-0.0	-0.0	164182.625	8349.1865234375	-5218.7353515625
0.0025	-0.0	-0.0	-0.0	6.886641979217529	34.24998092651367	-197.2638397216797	3.169781446456909	-122.80157470703124	-723.9954833984375	-0.0	-0.0	-0.0	-0.0	-0.0	-0.0	160117.3125	8418.16015625	-5099.30908203125
0.003	-0.0	-0.0	-0.0	6.387838840484619	36.8823471069336	-221.96495056152344	2.75003433227539	-119.42835998535156	-703.8651733398438	-0.0	-0.0	-0.0	-0.0	-0.0	-0.0	156003.84375	8374.1767578125	-5057.47314453125
0.0035	-0.0	-0.0	-0.0	4.829245090484619	38.17158508300781	-247.3437347412109	2.1527323722839355	-115.51880645751952	-682.9169921875	-0.0	-0.0	-0.0	-0.0	-0.0	-0.0	151402.359375	8409.4853515625	-5011.369140625
0.004	-0.0	-0.0	-0.0	1.8380861282348635	38.65886688232422	-272.08843994140625	2.0167155265808105	-110.69674682617188	-660.712158203125	-0.0	-0.0	-0.0	-0.0	-0.0	-0.0	146111.703125	8714.3095703125	-4818.39794921875
0.0045000000000000005	-0.0	-0.0	-0.0	-0.7902001738548279	38.64625549316406	-296.3614807128906	1.9516372680664065	-106.28141784667967	-635.1777954101562	-0.0	-0.0	-0.0	-0.0	-0.0	-0.0	141092.40625	8587.880859375	-4756.09912109375
0.005	-0.0	-0.0	-0.0	-2.645023822784424	38.14781188964844	-321.082763671875	1.844765543937683	-100.89952850341795	-609.8331298828125	-0.0	-0.0	-0.0	-0.0	-0.0	-0.0	135262.65625	8789.2890625	-4481.78564453125
0.0055	-0.0	-0.0	-0.0	-2.859760284423828	38.56993103027344	-342.55096435546875	1.928195595741272	-95.489013671875	-581.040771484375	-0.0	-0.0	-0.0	-0.0	-0.0	-0.0	129256.2734375	8499.2890625	-4314.6396484375
0.006	-0.0	-0.0	-0.0	-3.33821177482605	38.59824752807617	-364.2784118652344	2.278275966644287	-89.80875396728516	-553.8085327148438	-0.0	-0.0	-0.0	-0.0	-0.0	-0.0	122832.0625	8600.6083984375	-4107.00927734375
0.006500000000000001	-0.0	-0.0	-0.0	-3.080073118209839	40.72300720214844	-386.5829162597656	2.2831389904022217	-83.5662841796875	-523.7643432617188	-0.0	-0.0	-0.0	-0.0	-0.0	-0.0	116569.3359375	8553.40625	-3911.83984375
0.007	-0.0	-0.0	-0.0	-2.975968599319458	44.5271110534668	-410.1515808105469	2.41410231590271	-77.46393585205078	-496.1101989746094	-0.0	-0.0	-0.0	-0.0	-0.0	-0.0	109899.0	8302.525390625	-3618.00048828125
0.0075	-0.0	-0.0	-0.0	-3.40923810005188	48.83648300170898	-432.7701110839844	2.067678928375244	-71.5092544555664	-465.9347534179688	-0.0	-0.0	-0.0	-0.0	-0.0	-0.0	103721.5703125	8232.7138671875	-3435.81787109375
0.008	-0.0	-0.0	-0.0	-3.4132814407348637	55.55541610717773	-460.1167907714844	2.391235113143921	-65.00081634521484	-437.2890319824219	-0.0	-0.0	-0.0	-0.0	-0.0	-0.0	97216.109375	8185.1025390625	-3164.298828125
0.0085	-0.0	-0.0	-0.0	-3.231168508529663	62.68547439575195	-485.20599365234375	2.15580677986145	-59.786502838134766	-410.5735168457031	-0.0	-0.0	-0.0	-0.0	-0.0	-0.0	91243.375	8291.8916015625	-3030.4404296875
0.009000000000000001	-0.0	-0.0	-0.0	-2.4086837768554688	70.42335510253906	-510.55572509765625	2.572612762451172	-53.515995025634766	-381.5045471191406	-0.0	-0.0	-0.0	-0.0	-0.0	-0.0	85066.875	8193.63671875	-2755.103759765625
0.0095	-0.0	-0.0	-0.0	-0.9183402061462402	78.55323791503906	-539.6838989257812	3.124663829803467	-48.81901931762695	-354.2859191894531	-0.0	-0.0	-0.0	-0.0	-0.0	-0.0	78798.0390625	7967.453125	-2295.374755859375
0.01	-0.0	-0.0	-0.0	0.4230221211910248	86.68659210205078	-568.2896118164062	3.6571037769317623	-43.93268203735352	-327.3122253417969	-0.0	-0.0	-0.0	-0.0	-0.0	-0.0	72682.625	7427.4541015625	-2113.716796875
0.0105	-0.0	-0.0	-0.0	1.3666317462921145	93.99211883544922	-595.7452392578125	4.235243320465088	-39.1465072631836	-300.2265014648437	-0.0	-0.0	-0.0	-0.0	-0.0	-0.0	66559.703125	7536.97705078125	-1696.8492431640625
0.011	-0.0	-0.0	-0.0	1.9806616306304927	100.7680206298828	-625.4102783203125	4.924692153930664	-35.169776916503906	-273.7055358886719	-0.0	-0.0	-0.0	-0.0	-0.0	-0.0	60559.0234375	7207.7900390625	-1274.1922607421875
0.0115	-0.0	-0.0	-0.0	2.8753340244293213	106.44908905029295	-651.3633422851562	5.677490234375	-30.801610946655277	-245.60533142089844	-0.0	-0.0	-0.0	-0.0	-0.0	-0.0	54573.04296875	7094.4560546875	-870.8768920898438
0.012	-0.0	-0.0	-0.0	3.124405860900879	110.8326416015625	-675.8299560546875	6.298465728759766	-27.046958923339844	-218.56890869140625	-0.0	-0.0	-0.0	-0.0	-0.0	-0.0	48934.6484375	6657.99365234375	-462.5319519042969
0.0125	-0.0	-0.0	-0.0	2.9876837730407715	114.13060760498048	-698.153564453125	7.142111778259277	-23.206077575683597	-198.74224853515625	-0.0	-0.0	-0.0	-0.0	-0.0	-0.0	43377.77734375	6173.61572265625	0.3800764679908752
0.013000000000000001	-0.0	-0.0	-0.0	2.432948112487793	116.87263488769533	-718.5477294921875	8.074301719665527	-20.024925231933597	-174.38528442382812	-0.0	-0.0	-0.0	-0.0	-0.0	-0.0	38479.38671875	6002.32177734375	453.168212890625
0.0135	-0.0	-0.0	-0.0	1.7377032041549685	118.56476593017578	-736.827880859375	9.382156372070312	-17.069808959960938	-154.05404663085938	-0.0	-0.0	-0.0	-0.0	-0.0	-0.0	34224.61328125	5270.73974609375	944.5014038085938
0.014	-0.0	-0.0	-0.0	1.135108470916748	119.70419311523438	-754.9282836914062	10.31290054321289	-14.28467845916748	-135.02903747558594	-0.0	-0.0	-0.0	-0.0	-0.0	-0.0	29915.9453125	4938.03173828125	1346.4586181640625
0.0145	-0.0	-0.0	-0.0	-0.4677038490772247	120.90582275390624	-769.500244140625	11.35498046875	-11.569221496582031	-117.65682220458984	-0.0	-0.0	-0.0	-0.0	-0.0	-0.0	25923.908203125	4584.08984375	1733.4534912109375
0.015	-0.0	-0.0	-0.0	-0.5801517367362976	121.92981719970705	-783.7974243164062	12.086999893188477	-9.47203540802002	-101.8619155883789	-0.0	-0.0	-0.0	-0.0	-0.0	-0.0	22710.560546875	4082.86767578125	2141.792724609375
0.0155	-0.0	-0.0	-0.0	-0.8476661443710327	122.35367584228516	-797.5701904296875	12.64148235321045	-7.684375762939453	-87.809326171875	-0.0	-0.0	-0.0	-0.0	-0.0	-0.0	19120.1953125	3644.54296875	2387.479736328125
